<svg id="Слой_1" data-name="Слой 1" xmlns="http://www.w3.org/2000/svg" xmlns:xlink="http://www.w3.org/1999/xlink" viewBox="0 0 1000 448.98"><defs><style>.cls-1{fill:url(#Безымянный_градиент_6);}.cls-2{fill:url(#Безымянный_градиент_6-2);}.cls-3{fill:url(#Безымянный_градиент_9);}.cls-4{fill:url(#Безымянный_градиент_8);}</style><linearGradient id="Безымянный_градиент_6" x1="70.36" y1="315.42" x2="205.43" y2="209.4" gradientUnits="userSpaceOnUse"><stop offset="0" stop-color="#e9a700"/><stop offset="0.08" stop-color="#e9a804"/><stop offset="0.16" stop-color="#eaad0f"/><stop offset="0.24" stop-color="#ecb422"/><stop offset="0.32" stop-color="#efbe3d"/><stop offset="0.39" stop-color="#f2cb60"/><stop offset="0.47" stop-color="#f6db89"/><stop offset="0.5" stop-color="#f8e39f"/></linearGradient><linearGradient id="Безымянный_градиент_6-2" x1="-10016.69" y1="310.1" x2="-9957.08" y2="263.31" gradientTransform="matrix(-1, 0, 0, 1, -9770.09, 0)" xlink:href="#Безымянный_градиент_6"/><linearGradient id="Безымянный_градиент_9" x1="159" y1="297.58" x2="176.57" y2="182.61" gradientUnits="userSpaceOnUse"><stop offset="0" stop-color="#e9a700"/><stop offset="0.06" stop-color="#e9a804"/><stop offset="0.11" stop-color="#eaad0f"/><stop offset="0.17" stop-color="#ecb422"/><stop offset="0.22" stop-color="#efbe3d"/><stop offset="0.27" stop-color="#f2cb60"/><stop offset="0.32" stop-color="#f6db89"/><stop offset="0.35" stop-color="#f8e39f"/></linearGradient><linearGradient id="Безымянный_градиент_8" x1="-10325.73" y1="297.82" x2="-10310.15" y2="195.87" gradientTransform="matrix(-1, 0, 0, 1, -10121.79, 0)" xlink:href="#Безымянный_градиент_9"/></defs><path d="M204.38,66.59c-.35,3.38-.6,6.67-.73,9.87s-.21,5.63-.21,7.32.05,3.27.14,4.74.18,2.75.27,3.86h-3.09a54,54,0,0,0-4.55-13.83,16.51,16.51,0,0,0-7-7.22q-4.35-2.2-11.46-2.2h-4.29v62.8a17,17,0,0,0,1,6.72,5.49,5.49,0,0,0,4.09,2.92,45.73,45.73,0,0,0,9,.82v2.21q-4-.22-10.46-.28t-13.13,0q-7,0-13.07,0t-9.85.28v-2.21a44.92,44.92,0,0,0,8.84-.82,5.72,5.72,0,0,0,4.16-2.92,16.15,16.15,0,0,0,1.07-6.72V69.13h-4.42a25.58,25.58,0,0,0-11.4,2.2,16.41,16.41,0,0,0-7.1,7.22,50.75,50.75,0,0,0-4.42,13.83h-3.08a33.18,33.18,0,0,0,.33-3.86c0-1.47.07-3,.07-4.74s-.07-4.13-.2-7.32-.39-6.49-.74-9.87q5.9.12,13,.23t14.21.11h25.87q7.09,0,14.2-.11T204.38,66.59Z"/><path d="M228.91,58.33v39a18.83,18.83,0,0,1,9.32-8.7,32.66,32.66,0,0,1,12.93-2.53,27.78,27.78,0,0,1,9,1.21,17,17,0,0,1,5.63,3.08,11.86,11.86,0,0,1,3.28,5.4,31.73,31.73,0,0,1,1,8.93v29.63q0,4.64,2.08,6.28t7,1.65v2.32c-1.61-.07-4.06-.17-7.37-.28s-6.57-.16-9.78-.16-6.39.05-9.52.16-5.5.21-7.1.28v-2.32c2.85,0,4.87-.55,6-1.65s1.74-3.19,1.74-6.28V101a19.5,19.5,0,0,0-.67-5.34,6.72,6.72,0,0,0-2.61-3.75,10.09,10.09,0,0,0-5.83-1.38,15.45,15.45,0,0,0-7.71,1.93,14.36,14.36,0,0,0-5.43,5.4,15.42,15.42,0,0,0-2,7.88v28.64q0,4.64,1.81,6.28c1.21,1.1,3.19,1.65,6,1.65v2.32c-1.52-.07-3.77-.17-6.76-.28s-6.1-.16-9.32-.16-6.55.05-10,.16-6,.21-7.7.28v-2.32c3.3,0,5.65-.55,7-1.65s2.08-3.19,2.08-6.28V71.55q0-5-1.94-7.32t-7.17-2.37V59.54q4.29.33,8.31.33c3.39,0,6.57-.12,9.51-.38A70.93,70.93,0,0,0,228.91,58.33Z"/><path d="M311.61,86.1q11.79,0,18.49,5.83t6.7,18.62H291.64l-.14-2.09h29.76a35.93,35.93,0,0,0-.81-10A17.06,17.06,0,0,0,317,91.16a7.63,7.63,0,0,0-6.09-2.75q-5.1,0-8.85,4.9t-4.69,16l.54.66a19.61,19.61,0,0,0-.34,3.09c-.05,1.1-.07,2.2-.07,3.3q0,7.6,2.68,12.56a17.28,17.28,0,0,0,7,7.27,18.34,18.34,0,0,0,8.85,2.32,27.26,27.26,0,0,0,6.3-.77,19.29,19.29,0,0,0,6.3-2.87,21.13,21.13,0,0,0,5.63-6l2.54.88a24.66,24.66,0,0,1-4.89,7.66,26,26,0,0,1-8.78,6.23,30.42,30.42,0,0,1-12.6,2.42,37.19,37.19,0,0,1-16.08-3.3A24.62,24.62,0,0,1,283.59,133q-3.88-6.54-3.88-16,0-10,4.08-16.85a26.64,26.64,0,0,1,11.33-10.41A36.64,36.64,0,0,1,311.61,86.1Z"/><path d="M405.29,66.59q25.74,0,38.13,9.87t12.4,28.26a36.39,36.39,0,0,1-6.1,21q-6.09,9-17.62,13.94t-28,5c-1.34,0-3.15,0-5.43-.11s-4.65-.13-7.11-.17-4.71,0-6.76,0c-3.67,0-7.24,0-10.73,0s-6.34.13-8.58.28v-2.21a29.73,29.73,0,0,0,6.64-.88,4.23,4.23,0,0,0,2.95-2.64,18.14,18.14,0,0,0,.74-6V78.27a18,18,0,0,0-.74-6,4.4,4.4,0,0,0-2.95-2.65,25.26,25.26,0,0,0-6.64-.82V66.59l8.58.28c3.49.11,7,.13,10.46.06q4.82-.12,10.85-.22C399.4,66.63,402.7,66.59,405.29,66.59Zm-1.2,2c-4.11,0-6.8.62-8,1.87s-1.87,3.78-1.87,7.6v55.09q0,5.73,1.94,7.6c1.29,1.25,4,1.87,8.11,1.87q12.46,0,19.5-4.35a23.34,23.34,0,0,0,9.92-12.72q2.88-8.37,2.88-20.38,0-12.34-3.15-20.44A23,23,0,0,0,423.12,72.6Q416,68.58,404.09,68.58Z"/><path d="M498.18,66.59V68.8a24.6,24.6,0,0,0-6.5.82,4.61,4.61,0,0,0-3,2.65,16.54,16.54,0,0,0-.8,6v54.65a16.63,16.63,0,0,0,.8,6,4.42,4.42,0,0,0,3,2.64,29,29,0,0,0,6.5.88v2.21q-3.36-.22-8.58-.28t-10.59,0q-6,0-11.26,0t-8.58.28v-2.21a29.82,29.82,0,0,0,6.64-.88,4.25,4.25,0,0,0,2.95-2.64,18.19,18.19,0,0,0,.73-6V78.27a18.08,18.08,0,0,0-.73-6,4.42,4.42,0,0,0-2.95-2.65,25.32,25.32,0,0,0-6.64-.82V66.59c2.24.08,5.1.15,8.58.23s7.24.11,11.26.11q5.36,0,10.59-.11C493.08,66.74,495.94,66.67,498.18,66.59Z"/><path d="M543.75,66.26l32.57,69.08a13.56,13.56,0,0,0,4.35,5.46,9.19,9.19,0,0,0,4.36,1.59v2.21q-3.49-.22-8.38-.28t-10,0q-5.91,0-11,0t-8.31.28v-2.21c4.55-.14,7.46-.78,8.71-1.92s1-3.58-.81-7.33L531.68,80.81l2.42-2.43-21.45,45.73a35.56,35.56,0,0,0-3.08,9,8.18,8.18,0,0,0,.67,5.51,6.62,6.62,0,0,0,4,2.81,27.67,27.67,0,0,0,7,.93v2.21q-4.29-.22-8.31-.28t-8,0c-2,0-3.82,0-5.56,0s-3.29.13-4.63.28v-2.21a13.16,13.16,0,0,0,5.83-2.86q2.88-2.31,5.56-8l30.7-65.23c1.07.08,2.23.11,3.48.11S542.67,66.34,543.75,66.26Zm11.66,46.61v2.2H515.47l1.34-2.2Z"/><path d="M691.72,66.59V68.8a25.52,25.52,0,0,0-6.57.82,4.37,4.37,0,0,0-3,2.65,17.77,17.77,0,0,0-.74,6v54.65a16.86,16.86,0,0,0,.8,6,4.42,4.42,0,0,0,3,2.64,29,29,0,0,0,6.5.88v2.21q-3.5-.22-8.85-.28t-10.85,0c-4,0-7.8,0-11.33,0s-6.37.13-8.51.28v-2.21a32.57,32.57,0,0,0,6.9-.88,4.48,4.48,0,0,0,3.15-2.64,16.59,16.59,0,0,0,.81-6V73l.93.11-33.24,71.84h-2.14L593.21,73.65v54.64a32.35,32.35,0,0,0,.8,8.21,6.25,6.25,0,0,0,3.55,4.19,26,26,0,0,0,8.38,1.7v2.21q-2.55-.22-6.57-.28t-7.64,0q-3.21,0-6.5,0c-2.19,0-4,.13-5.43.28v-2.21a18,18,0,0,0,6.64-1.65,6.11,6.11,0,0,0,2.95-4,30.92,30.92,0,0,0,.73-7.61V78.27a18.08,18.08,0,0,0-.73-6,4.42,4.42,0,0,0-2.95-2.65,25.32,25.32,0,0,0-6.64-.82V66.59c1.43.08,3.24.15,5.43.23s4.36.11,6.5.11c3.31,0,6.52,0,9.65-.11s5.9-.15,8.31-.23l28.82,59.17-3,2,28-60.81H672q5.49,0,10.85-.11C686.44,66.74,689.39,66.67,691.72,66.59Z"/><path d="M740.91,65.05q13.67,0,24,4.74a36.7,36.7,0,0,1,16,13.61q5.69,8.86,5.69,21.54a38.53,38.53,0,0,1-22.05,36,52.5,52.5,0,0,1-23.79,5.18q-13.66,0-24-4.74a36.46,36.46,0,0,1-16-13.66q-5.7-8.92-5.7-21.48a39.25,39.25,0,0,1,5.9-21.6,40.06,40.06,0,0,1,16.21-14.43A52.25,52.25,0,0,1,740.91,65.05Zm-.54,2A20.57,20.57,0,0,0,726.63,72a32.11,32.11,0,0,0-9,13.66,58,58,0,0,0-3.22,20.17A52.42,52.42,0,0,0,718,126.14a31.48,31.48,0,0,0,9.78,13.33,21.86,21.86,0,0,0,13.54,4.69,20.58,20.58,0,0,0,13.74-5,32.09,32.09,0,0,0,9.05-13.72,58.22,58.22,0,0,0,3.21-20.1q0-11.79-3.62-20.39A31.83,31.83,0,0,0,754,71.72,21.83,21.83,0,0,0,740.37,67Z"/><path d="M876.82,66.59V68.8a16.27,16.27,0,0,0-6.57,1.6,6.16,6.16,0,0,0-3,4,30.69,30.69,0,0,0-.74,7.66v62.91c-.8-.08-1.67-.11-2.61-.11s-1.94,0-3,.11L803.37,80.7v47.59a32.35,32.35,0,0,0,.8,8.21,6.25,6.25,0,0,0,3.55,4.19,26,26,0,0,0,8.38,1.7v2.21q-2.55-.22-6.57-.28t-7.64,0q-3.21,0-6.5,0c-2.19,0-4,.13-5.43.28v-2.21a18,18,0,0,0,6.64-1.65,6.11,6.11,0,0,0,2.95-4,30.92,30.92,0,0,0,.73-7.61V78.27a18.08,18.08,0,0,0-.73-6,4.42,4.42,0,0,0-2.95-2.65A25.32,25.32,0,0,0,790,68.8V66.59c1.43.08,3.24.15,5.43.23s4.36.11,6.5.11,4.07,0,6-.11,3.71-.15,5.23-.23l50.26,55V82.9a32.66,32.66,0,0,0-.8-8.26,6.42,6.42,0,0,0-3.49-4.19q-2.68-1.32-8.44-1.65V66.59c1.69.08,3.91.15,6.63.23s5.25.11,7.58.11,4.44,0,6.63-.11S875.47,66.67,876.82,66.59Z"/><path d="M918.9,66.59q25.73,0,38.13,9.87t12.4,28.26a36.47,36.47,0,0,1-6.1,21q-6.11,9-17.63,13.94t-28,5c-1.34,0-3.15,0-5.43-.11s-4.64-.13-7.1-.17-4.71,0-6.77,0c-3.66,0-7.24,0-10.72,0s-6.35.13-8.58.28v-2.21a29.82,29.82,0,0,0,6.64-.88,4.22,4.22,0,0,0,2.94-2.64,18.14,18.14,0,0,0,.74-6V78.27a18,18,0,0,0-.74-6,4.38,4.38,0,0,0-2.94-2.65,25.32,25.32,0,0,0-6.64-.82V66.59l8.58.28c3.48.11,7,.13,10.45.06q4.83-.12,10.86-.22T918.9,66.59Zm-1.21,2q-6.16,0-8,1.87t-1.88,7.6v55.09q0,5.73,2,7.6c1.29,1.25,4,1.87,8.11,1.87q12.46,0,19.5-4.35a23.39,23.39,0,0,0,9.92-12.72q2.88-8.37,2.88-20.38,0-12.34-3.15-20.44A23,23,0,0,0,936.72,72.6Q929.63,68.58,917.69,68.58Z"/><path d="M330.64,202.44c2.23.07,5.09.15,8.58.22s7,.12,10.45.12q6.57,0,12.47-.12t8.31-.11q15.81,0,23.65,5t7.84,12.83a14.92,14.92,0,0,1-2.47,7.94,22.39,22.39,0,0,1-7.91,7.15,43.32,43.32,0,0,1-14.14,4.76v.23q11.79.92,18.69,4t9.86,7.38a15.4,15.4,0,0,1,2.94,8.9,17.6,17.6,0,0,1-4.22,11.86q-4.21,4.94-12.13,7.55a61.05,61.05,0,0,1-19,2.61q-3,0-9-.17t-14.61-.17c-3.66,0-7.24,0-10.72.05s-6.35.14-8.58.29v-2.27a28.91,28.91,0,0,0,6.64-.91,4.26,4.26,0,0,0,2.94-2.72,19.21,19.21,0,0,0,.74-6.13V214.47a19.13,19.13,0,0,0-.74-6.19,4.43,4.43,0,0,0-2.94-2.72,24.27,24.27,0,0,0-6.64-.85Zm37.53,2.27q-5.51,0-7.17,1.93t-1.68,7.83v56.28a17.08,17.08,0,0,0,.81,6,4.43,4.43,0,0,0,2.81,2.73,19.59,19.59,0,0,0,5.9.68q11,0,15.88-5.16t4.89-14.7q0-8.73-5.29-13.5T366.83,242h-12.2v-1.93h11.53c4.56,0,8.08-.85,10.59-2.55a12.59,12.59,0,0,0,5.09-6.81,30.37,30.37,0,0,0,1.34-9.14q0-8.38-3.48-12.65T368.17,204.71Z"/><path d="M458.91,200.85q13.66,0,24,4.88a37,37,0,0,1,16,14q5.68,9.13,5.69,22.19a41.76,41.76,0,0,1-5.83,22.24A39.87,39.87,0,0,1,482.56,279a51.27,51.27,0,0,1-23.79,5.34q-13.66,0-24-4.88a36.87,36.87,0,0,1-16-14.07q-5.7-9.19-5.7-22.13,0-12.71,5.9-22.24a40.51,40.51,0,0,1,16.21-14.87A51,51,0,0,1,458.91,200.85Zm-.54,2A20.17,20.17,0,0,0,444.63,208a33.05,33.05,0,0,0-9,14.07,61.25,61.25,0,0,0-3.22,20.76A55.49,55.49,0,0,0,436,263.77q3.61,8.91,9.78,13.73a21.47,21.47,0,0,0,13.54,4.82,20.21,20.21,0,0,0,13.74-5.1q5.83-5.12,9.05-14.13a61.61,61.61,0,0,0,3.21-20.71q0-12.13-3.62-21A32.83,32.83,0,0,0,472,207.71,21.45,21.45,0,0,0,458.37,202.89Z"/><path d="M592.4,202.44v2.27a15.4,15.4,0,0,0-6.5,1.64,6.64,6.64,0,0,0-3,4.09,29.61,29.61,0,0,0-.81,7.88v31.44a73.45,73.45,0,0,1-1.14,13.61,25.59,25.59,0,0,1-4.35,10.44,23.15,23.15,0,0,1-10,7.66,40.31,40.31,0,0,1-16.15,2.9,64.57,64.57,0,0,1-12.67-1.25,27.54,27.54,0,0,1-10.92-4.65,21.92,21.92,0,0,1-9.65-15.72,86.31,86.31,0,0,1-.8-12.65V214.47a19.13,19.13,0,0,0-.74-6.19,4.43,4.43,0,0,0-2.95-2.72,24.12,24.12,0,0,0-6.63-.85v-2.27c2.23.07,5.09.15,8.57.22s7.24.12,11.26.12c3.67,0,7.28,0,10.86-.12s6.52-.15,8.85-.22v2.27a26.59,26.59,0,0,0-6.91.85,4.69,4.69,0,0,0-3.15,2.72,17.78,17.78,0,0,0-.8,6.19v41.07a55.35,55.35,0,0,0,.87,10.27,22.32,22.32,0,0,0,3,7.89,13,13,0,0,0,5.9,5,23.83,23.83,0,0,0,9.71,1.71q9.79,0,15.15-3.75a19.64,19.64,0,0,0,7.51-10.44A50,50,0,0,0,579,251V219.23a29.47,29.47,0,0,0-.94-8.51,7,7,0,0,0-3.68-4.31,22,22,0,0,0-8.11-1.7v-2.27c1.69.07,3.9.15,6.63.22s5.25.12,7.57.12,4.45,0,6.64-.12S591.06,202.51,592.4,202.44Z"/><path d="M672.42,202.44q-.54,5.22-.74,10.15t-.2,7.55c0,1.74,0,3.37.13,4.88s.18,2.84.27,4H668.8a56.36,56.36,0,0,0-4.56-14.24,16.68,16.68,0,0,0-7-7.43q-4.35-2.28-11.45-2.27h-4.29v64.68a18,18,0,0,0,1,6.92,5.48,5.48,0,0,0,4.09,3,44.62,44.62,0,0,0,9,.85v2.27q-4-.22-10.46-.29t-13.13-.05q-7,0-13.07.05c-4.06,0-7.35.14-9.85.29v-2.27a44,44,0,0,0,8.85-.85,5.69,5.69,0,0,0,4.15-3,16.89,16.89,0,0,0,1.07-6.92V205.05h-4.42q-7,0-11.39,2.27a16.53,16.53,0,0,0-7.1,7.43A53.38,53.38,0,0,0,595.75,229h-3.08a30.82,30.82,0,0,0,.33-4c0-1.51.07-3.14.07-4.88s-.07-4.26-.2-7.55-.38-6.67-.74-10.15q5.89.1,13,.22t14.21.12h25.87q7.1,0,14.21-.12T672.42,202.44Z"/><path d="M713,202.44v2.27a23.57,23.57,0,0,0-6.5.85,4.65,4.65,0,0,0-3,2.72,17.54,17.54,0,0,0-.8,6.19v56.28a17.61,17.61,0,0,0,.8,6.13,4.46,4.46,0,0,0,3,2.72,28.17,28.17,0,0,0,6.5.91v2.27q-3.36-.22-8.58-.29t-10.59-.05q-6,0-11.26.05t-8.58.29v-2.27a28.91,28.91,0,0,0,6.64-.91,4.29,4.29,0,0,0,3-2.72,19.27,19.27,0,0,0,.73-6.13V214.47a19.19,19.19,0,0,0-.73-6.19,4.47,4.47,0,0,0-3-2.72,24.27,24.27,0,0,0-6.64-.85v-2.27c2.24.07,5.1.15,8.58.22s7.24.12,11.26.12q5.35,0,10.59-.12C707.93,202.59,710.79,202.51,713,202.44Z"/><path d="M762.22,200.85q13.66,0,24,4.88a37,37,0,0,1,16,14q5.68,9.13,5.69,22.19a41.76,41.76,0,0,1-5.83,22.24A39.94,39.94,0,0,1,785.87,279a51.27,51.27,0,0,1-23.79,5.34q-13.67,0-24-4.88a37,37,0,0,1-16-14.07q-5.69-9.19-5.69-22.13,0-12.71,5.9-22.24a40.51,40.51,0,0,1,16.21-14.87A51,51,0,0,1,762.22,200.85Zm49.72,81.82,2.15.68a36.82,36.82,0,0,1-3.42,9.76,17.67,17.67,0,0,1-5.56,6.35,24.57,24.57,0,0,1-7.11,3.29,35.57,35.57,0,0,1-10.45,1.36,52.1,52.1,0,0,1-14.14-1.93,140.57,140.57,0,0,1-14.07-4.76q-7.19-2.84-15.35-5.34l-1.81-.45c-.58-.15-1.1-.27-1.54-.34a30.14,30.14,0,0,1-5.5,1.59,29.62,29.62,0,0,1-5.63.57,12.37,12.37,0,0,1-4.42-.68c-1.16-.46-1.74-1.14-1.74-2q0-2.84,7.24-2.83a40.89,40.89,0,0,1,10,1.36,58.31,58.31,0,0,0,8.51-2.56c2.37-.94,4.82-1.83,7.37-2.66a36.84,36.84,0,0,1,9.05-1.59l.13,1.81a33.57,33.57,0,0,0-7.1,1.31q-3.09,1-6.1,2.1a65.18,65.18,0,0,1-7.17,2.15q8.71.79,16.82,1.59t15.15,1.19a107.57,107.57,0,0,0,12.66.06q8.71-.57,13.81-2.84A18.31,18.31,0,0,0,811.94,282.67Zm-50.26-79.78A20.17,20.17,0,0,0,747.94,208a33.05,33.05,0,0,0-9,14.07,61.25,61.25,0,0,0-3.22,20.76,55.49,55.49,0,0,0,3.62,20.94q3.62,8.91,9.78,13.73a21.45,21.45,0,0,0,13.54,4.82,20.21,20.21,0,0,0,13.74-5.1,33.09,33.09,0,0,0,9-14.13,61.35,61.35,0,0,0,3.22-20.71q0-12.13-3.62-21a32.83,32.83,0,0,0-9.71-13.68A21.45,21.45,0,0,0,761.68,202.89Z"/><path d="M895.71,202.44v2.27a15.4,15.4,0,0,0-6.5,1.64,6.69,6.69,0,0,0-3,4.09,30.11,30.11,0,0,0-.8,7.88v31.44a73.45,73.45,0,0,1-1.14,13.61,25.59,25.59,0,0,1-4.35,10.44,23.15,23.15,0,0,1-10,7.66,40.31,40.31,0,0,1-16.15,2.9,64.57,64.57,0,0,1-12.67-1.25,27.54,27.54,0,0,1-10.92-4.65,21.92,21.92,0,0,1-9.65-15.72,84.94,84.94,0,0,1-.8-12.65V214.47a19.13,19.13,0,0,0-.74-6.19,4.45,4.45,0,0,0-3-2.72,24.18,24.18,0,0,0-6.63-.85v-2.27c2.23.07,5.09.15,8.57.22s7.24.12,11.26.12c3.67,0,7.28,0,10.86-.12s6.52-.15,8.84-.22v2.27a26.5,26.5,0,0,0-6.9.85,4.69,4.69,0,0,0-3.15,2.72,17.78,17.78,0,0,0-.8,6.19v41.07a55.35,55.35,0,0,0,.87,10.27,22.32,22.32,0,0,0,2.95,7.89,13,13,0,0,0,5.9,5,23.83,23.83,0,0,0,9.71,1.71q9.78,0,15.15-3.75a19.57,19.57,0,0,0,7.5-10.44,49.73,49.73,0,0,0,2.15-15.2V219.23a29.83,29.83,0,0,0-.94-8.51,7,7,0,0,0-3.69-4.31,21.88,21.88,0,0,0-8.11-1.7v-2.27c1.7.07,3.91.15,6.64.22s5.25.12,7.57.12,4.45,0,6.64-.12S894.37,202.51,895.71,202.44Z"/><path d="M966.75,202.44q-.54,4.65-.74,9c-.14,2.91-.2,5.12-.2,6.64s0,2.82.13,4.14.18,2.44.27,3.35h-3.08q-1.08-7.83-3.49-12.32a14,14,0,0,0-6.5-6.35,25.74,25.74,0,0,0-10.65-1.87h-7.38a26,26,0,0,0-6.16.56,4,4,0,0,0-2.88,2.39,15.7,15.7,0,0,0-.74,5.56v58.1a15.78,15.78,0,0,0,.74,5.5A4,4,0,0,0,929,279.6a25.39,25.39,0,0,0,6.16.57h7.64A27,27,0,0,0,954.21,278a16.49,16.49,0,0,0,7.44-7.09q2.82-4.94,4.16-13.56h3.08a82.58,82.58,0,0,0-.4,9.08q0,2.38.2,6.92t.74,9.42q-6.84-.22-15.42-.29t-15.28-.05h-8.11q-5,0-10.85.05l-11.8.12c-4,0-7.75.09-11.32.17v-2.27a28.72,28.72,0,0,0,6.63-.91,4.25,4.25,0,0,0,3-2.72,19.21,19.21,0,0,0,.74-6.13V214.47a19.13,19.13,0,0,0-.74-6.19,4.43,4.43,0,0,0-3-2.72,24.12,24.12,0,0,0-6.63-.85v-2.27c3.57.07,7.35.13,11.32.17l11.8.11q5.82.06,10.85.06h8.11q6.16,0,14-.06T966.75,202.44Zm-21.58,38.81v2.26H921.31v-2.26Zm3.88-15q-.52,6.47-.47,9.87t.07,6.24q0,2.84.14,6.24c.08,2.27.31,5.56.67,9.87h-3.09a35.4,35.4,0,0,0-2.07-7.31,12.34,12.34,0,0,0-4.43-5.57c-2-1.39-4.89-2.1-8.64-2.1v-2.26a13.64,13.64,0,0,0,6.77-1.48,12.49,12.49,0,0,0,4.22-3.8,19.88,19.88,0,0,0,2.48-4.88,32.94,32.94,0,0,0,1.27-4.82Z"/><polygon class="cls-1" points="235.08 166.6 88.75 166.6 25.77 218.81 147.77 389.05 62.65 220.51 92.73 172.28 235.08 166.6"/><polygon class="cls-2" points="234.99 166.6 297.98 218.81 175.98 389.05 261.1 220.51 234.99 166.6"/><polygon class="cls-3" points="235.08 166.6 114.16 224.06 160.43 355.31 134.09 223.24 235.08 166.6"/><polygon class="cls-4" points="235.08 166.6 207.81 224.06 161.54 355.31 187.89 223.24 235.08 166.6"/><path d="M371.8,376a46.36,46.36,0,0,0,16.33-2.76,48.8,48.8,0,0,0,13.4-7.53A60.65,60.65,0,0,0,412,355q2.88-3.76,5.41-7.66t4.69-7.36c1.44-2.32,2.74-4.32,3.88-6a21.66,21.66,0,0,1,2.89-3.63A115,115,0,0,0,417.49,328a145.62,145.62,0,0,0-16.1-1.39,41.89,41.89,0,0,0-12,1.1,31.24,31.24,0,0,0-8.93,3.67,19.24,19.24,0,0,0-5.59,5,9.09,9.09,0,0,0-1.94,5.26,5.28,5.28,0,0,0,1.53,3.92,9.06,9.06,0,0,0,4,2.24,18.27,18.27,0,0,0,5.1.72,15.18,15.18,0,0,0,5.68-1,14.64,14.64,0,0,0,4.11-2.37,13,13,0,0,0,2.52-2.66,4,4,0,0,0,.86-1.85v-.06a1.38,1.38,0,0,1,.9-.39.81.81,0,0,1,.91.91,8.26,8.26,0,0,1-2.76,4.87,15.81,15.81,0,0,1-5.54,3.18,21.34,21.34,0,0,1-6.86,1.1,19.88,19.88,0,0,1-7.13-1.3,13.75,13.75,0,0,1-5.59-3.76,8.77,8.77,0,0,1-2.16-6,10.57,10.57,0,0,1,1.76-5.68,17.41,17.41,0,0,1,5.32-5.2,29.74,29.74,0,0,1,9.06-3.79,51.77,51.77,0,0,1,13-1.43,73.83,73.83,0,0,1,12.14.91q5.44.9,10.46,2.24T430.35,329a21.12,21.12,0,0,1,3.38-2.43,7.69,7.69,0,0,1,3.93-1.14q1.8,0,1.8.78t-1.26.78a5.72,5.72,0,0,0-2.8.81,14,14,0,0,0-2.52,1.79q6.4,1.49,12.22,2.56a56.12,56.12,0,0,0,10.06,1.07,26.37,26.37,0,0,0,5.82-.45c1.17-.3,1.75-.8,1.75-1.49a1.12,1.12,0,0,1,.23-.69,1.06,1.06,0,0,1,.86-.29c.3,0,.51.19.63.55a3,3,0,0,1,.18.88c0,1-.77,1.88-2.3,2.53a14.7,14.7,0,0,1-5.73,1,53.31,53.31,0,0,1-7.17-.59q-4.2-.58-8.89-1.52T431.43,331a50.84,50.84,0,0,0-5.64,7.95q-2.3,4.05-4.24,8.14t-4.1,8.05A42.47,42.47,0,0,1,406.71,368a41,41,0,0,1-14.93,7.27,78,78,0,0,1-20,2.3,61.8,61.8,0,0,1-17.68-2.2q-7.31-2.2-11.14-6a11.65,11.65,0,0,1-3.83-8.47,14.68,14.68,0,0,1,1.85-7.33,15.84,15.84,0,0,1,5.14-5.52,18.89,18.89,0,0,1,7.53-2.92c.42,0,.63.11.63.32s-.15.39-.45.52a16,16,0,0,0-7.17,5.68,13.56,13.56,0,0,0-2.48,7.69,12.24,12.24,0,0,0,3.74,9A24.17,24.17,0,0,0,358,374,46.43,46.43,0,0,0,371.8,376Z"/><path d="M426.38,358.7a33.34,33.34,0,0,0,1.89-3.53c.79-1.63,1.6-3.43,2.44-5.42a36,36,0,0,0,1.89-5.65,2.52,2.52,0,0,1,1-1.53,2.71,2.71,0,0,1,1.53-.48,3.38,3.38,0,0,1,2.17.81,2.81,2.81,0,0,1,1,2.3,4,4,0,0,1-1.49,3.12,19.8,19.8,0,0,1-3.65,2.46c.6.05,1.23.08,1.89.1s1.38,0,2.16,0q4.24,0,8.39-.39a1.67,1.67,0,0,1,.19.59,4.94,4.94,0,0,1-.68,2.14,21,21,0,0,1-1.4,2.34c-.24.39-.72,1.09-1.44,2.11s-1.51,2.16-2.35,3.44a29.5,29.5,0,0,0-2.12,3.76,7.88,7.88,0,0,0-.86,3.15c0,1.13.6,1.69,1.81,1.69s2.73-1,4.78-2.89a37.83,37.83,0,0,0,6.13-8c.73,0,1.09.19,1.09.58a44.81,44.81,0,0,1-2.48,3.83,33.34,33.34,0,0,1-3.3,3.93,17.91,17.91,0,0,1-3.88,3.05,8.5,8.5,0,0,1-4.33,1.2,6.69,6.69,0,0,1-3.42-1,3.51,3.51,0,0,1-1.72-3.28,7.93,7.93,0,0,1,1.08-3.93,27.39,27.39,0,0,1,2.44-3.6c.9-1.13,1.71-2.12,2.44-3a3.74,3.74,0,0,0,1.08-2.08c0-.77-.68-1.34-2-1.68a24,24,0,0,0-5.28-.59c-1.08,2-1.89,3.47-2.43,4.42s-1.06,1.86-1.54,2.72Q425.93,359.48,426.38,358.7Z"/><path d="M452.27,371.43a10.66,10.66,0,0,1-2.39-.33,5.6,5.6,0,0,1-2.44-1.2,3.24,3.24,0,0,1-1-2.63,7.14,7.14,0,0,1,1.53-3.89l2.71-3.9c-.67,0-1-.19-1-.58q.09-.19.81-1.23l1.72-2.47c.66-.95,1.31-1.87,1.94-2.76s1.13-1.57,1.49-2.05A4,4,0,0,1,459,349h5.6a17.13,17.13,0,0,0-2.75,1.85,18.28,18.28,0,0,0-3,3.66l-2.21,3.22-1.89,2.82c-.63,1-1.16,1.75-1.58,2.4a14.6,14.6,0,0,0-1.53,2.89,6.31,6.31,0,0,0-.36,2c0,1.43.66,2.14,2,2.14s3.19-.84,5.23-2.53a38,38,0,0,0,5-5.13q2.44-3,4.65-6.16t3.93-5.72a4,4,0,0,1,3.51-1.42h5a16.64,16.64,0,0,0-4,3.5,61.64,61.64,0,0,0-4.46,6c-.43.65-1,1.48-1.63,2.47a23.29,23.29,0,0,0-1.76,3.18,8.13,8.13,0,0,0-.76,3.38,2,2,0,0,0,2.25,2.27c2,0,4-1,5.95-3.05a43.68,43.68,0,0,0,5.69-7.79,3.19,3.19,0,0,1,.85.06c.09.05.17.22.23.52q-1,1.75-2.39,3.8a33,33,0,0,1-3.16,3.93,15.59,15.59,0,0,1-3.88,3.05,9.43,9.43,0,0,1-4.64,1.17,5.58,5.58,0,0,1-3.7-1.2,4.19,4.19,0,0,1-1.44-3.41,9.27,9.27,0,0,1,.9-3.77A42.74,42.74,0,0,1,461,367a19.91,19.91,0,0,1-4.24,3.21A9.09,9.09,0,0,1,452.27,371.43Z"/><path d="M488.26,371.69a11.67,11.67,0,0,1-6-1.56,5.14,5.14,0,0,1-2.66-4.74,11.68,11.68,0,0,1,1.67-5.65,23.93,23.93,0,0,1,4.42-5.61,24.53,24.53,0,0,1,6.13-4.29,15.44,15.44,0,0,1,6.82-1.65,8.27,8.27,0,0,1,3.33.71,2.51,2.51,0,0,1,1.63,2.47,5.65,5.65,0,0,1-1.72,3.57,17,17,0,0,1-4.87,3.63,19.81,19.81,0,0,1-3.43,1.37,41.47,41.47,0,0,1-4.15,1.07,17.86,17.86,0,0,1-3.42.42,9.82,9.82,0,0,0-.86,2.08,8.85,8.85,0,0,0-.41,2.66,4.93,4.93,0,0,0,.91,2.92c.6.87,1.71,1.3,3.33,1.3a12.67,12.67,0,0,0,5.55-1.23,18.56,18.56,0,0,0,4.6-3.12,29,29,0,0,0,3.48-3.83c1-1.3,1.71-2.4,2.25-3.31.72,0,1.08.19,1.08.58q-1.17,1.83-2.66,4a23.1,23.1,0,0,1-3.52,4,16.69,16.69,0,0,1-4.87,3.06A16.91,16.91,0,0,1,488.26,371.69Zm-1.62-11.43a22.45,22.45,0,0,0,4.24-.68,17.94,17.94,0,0,0,5.41-2.17,12.76,12.76,0,0,0,3.61-3.28,5.63,5.63,0,0,0,1.26-3,1.27,1.27,0,0,0-1.44-1.43,6.89,6.89,0,0,0-3,1,27.53,27.53,0,0,0-4.69,3.51,34.61,34.61,0,0,0-3.25,3.37C487.78,358.81,487.06,359.7,486.64,360.26Z"/><path d="M540,396.22a53.78,53.78,0,0,1-15.47-2.07,25.93,25.93,0,0,1-10.92-6A13.82,13.82,0,0,1,512.35,370a19.6,19.6,0,0,1,6.13-5,17.84,17.84,0,0,1,3.52-1.4,11,11,0,0,1,2.16-.42c.37,0,.54.11.54.33s-.15.39-.45.52a15.93,15.93,0,0,0-7.17,5.71,14.3,14.3,0,0,0-2.48,8.11,13,13,0,0,0,3.25,8.8,20.58,20.58,0,0,0,9,5.74,40.55,40.55,0,0,0,13.35,2,45.51,45.51,0,0,0,24.45-7.27q11.64-7.27,22.46-20.26,4.07-5,7.67-10.32t6.85-10.51q3.26-5.07,6.18-9.12t5.15-6.85q2.21-2.79,3.2-3.9-22.83,2.2-35.32,7t-12.49,12.34a6.58,6.58,0,0,0,2.79,5.81,11.13,11.13,0,0,0,6.41,1.91,17,17,0,0,0,7.08-1.62,16.5,16.5,0,0,0,6-4.51A10.21,10.21,0,0,0,593,340.4a3.59,3.59,0,0,0-1.62-3c0-.43.3-.65.9-.65a2.42,2.42,0,0,1,1.94,1.17,4.81,4.81,0,0,1,.86,2.92,10.84,10.84,0,0,1-2.84,7.5,18.45,18.45,0,0,1-7.22,4.83,24.66,24.66,0,0,1-9,1.69,20.2,20.2,0,0,1-6.67-1.1,12.22,12.22,0,0,1-5.19-3.38,8.18,8.18,0,0,1-2-5.65q0-4.41,4.11-7.69a35.53,35.53,0,0,1,11.54-5.61,131.72,131.72,0,0,1,17.59-4q10.15-1.68,22.33-2.92a31.35,31.35,0,0,1,4.65-4A8.14,8.14,0,0,1,627,319a4.48,4.48,0,0,1,2.3.52,1.72,1.72,0,0,1,.86,1.56,2.76,2.76,0,0,1-1.71,2.43,15.94,15.94,0,0,1-4.33,1.5c-1.75.37-3.49.66-5.24.87a64.09,64.09,0,0,0-5.81,8.54q-2.49,4.38-4.61,9T604,352.77a101,101,0,0,1-5.63,9.76,83.93,83.93,0,0,1-15.61,17.89,66.69,66.69,0,0,1-19.58,11.68A64,64,0,0,1,540,396.22Zm80.56-71.92a15.89,15.89,0,0,0,5-1.14q1.26-.68,1.26-1.26,0-.78-1.08-.78a4.26,4.26,0,0,0-2.39,1.07Z"/><path d="M614.46,371.69a11.67,11.67,0,0,1-6-1.56,5.14,5.14,0,0,1-2.66-4.74,11.68,11.68,0,0,1,1.67-5.65,23.93,23.93,0,0,1,4.42-5.61,24.4,24.4,0,0,1,6.14-4.29,15.37,15.37,0,0,1,6.81-1.65,8.27,8.27,0,0,1,3.33.71,2.51,2.51,0,0,1,1.63,2.47,5.65,5.65,0,0,1-1.72,3.57,17,17,0,0,1-4.87,3.63,19.81,19.81,0,0,1-3.43,1.37,41.47,41.47,0,0,1-4.15,1.07,17.86,17.86,0,0,1-3.42.42,9.82,9.82,0,0,0-.86,2.08,8.85,8.85,0,0,0-.41,2.66,4.93,4.93,0,0,0,.91,2.92c.6.87,1.71,1.3,3.33,1.3a12.67,12.67,0,0,0,5.55-1.23,18.56,18.56,0,0,0,4.6-3.12,28.32,28.32,0,0,0,3.48-3.83c1-1.3,1.71-2.4,2.25-3.31.72,0,1.08.19,1.08.58q-1.17,1.83-2.66,4a23.1,23.1,0,0,1-3.52,4,16.69,16.69,0,0,1-4.87,3.06A16.91,16.91,0,0,1,614.46,371.69Zm-1.62-11.43a22.45,22.45,0,0,0,4.24-.68,17.94,17.94,0,0,0,5.41-2.17,12.76,12.76,0,0,0,3.61-3.28,5.63,5.63,0,0,0,1.26-3,1.27,1.27,0,0,0-1.44-1.43,6.89,6.89,0,0,0-3,1,27.53,27.53,0,0,0-4.69,3.51A35.83,35.83,0,0,0,615,357.6C614,358.81,613.26,359.7,612.84,360.26Z"/><path d="M650.91,371.56a8.89,8.89,0,0,1-.95,0l-1-.09a4,4,0,0,1-3.11-1.79,6.11,6.11,0,0,1-.86-3.15,9.31,9.31,0,0,1,.23-2,9,9,0,0,1,.58-1.79c-.54.7-1.23,1.53-2.07,2.5a28.14,28.14,0,0,1-2.89,2.89,18.29,18.29,0,0,1-3.43,2.4,7.67,7.67,0,0,1-3.69,1,8,8,0,0,1-3.52-.78,3.71,3.71,0,0,1-2.08-2.21,4.9,4.9,0,0,1-.13-.62,3.51,3.51,0,0,1-.05-.55,5.87,5.87,0,0,1,1.27-3.44q1.26-1.75,3-4.35a4.1,4.1,0,0,1-.76-.06c-.22,0-.32-.22-.32-.52q2.07-3.37,3.56-5.49c1-1.4,1.73-2.41,2.21-3a4.52,4.52,0,0,1,3.7-1.42h5.6a17.69,17.69,0,0,0-2.76,1.85,18.31,18.31,0,0,0-3,3.66l-2.21,3.19c-.63.9-1.26,1.84-1.89,2.79s-1.16,1.77-1.58,2.46a14.25,14.25,0,0,0-1.35,2.67,6.16,6.16,0,0,0-.46,2.14c0,1.51.7,2.27,2.08,2.27a5.77,5.77,0,0,0,3.25-1.3,23,23,0,0,0,4.28-4q2.21-2.56,4.29-5.42c1.38-1.9,2.61-3.67,3.7-5.29s1.89-2.83,2.43-3.61a2.88,2.88,0,0,1,1.22-1.07,5.56,5.56,0,0,1,2.21-.35h5.5a8.8,8.8,0,0,1-1.58.84,5.75,5.75,0,0,0-2,1.62c-.84,1-1.59,2-2.25,2.89s-1.57,2.22-2.71,4l-1.4,2.28a32,32,0,0,0-1.94,3.7,9,9,0,0,0-.9,3.63,2.33,2.33,0,0,0,.63,1.69,2.83,2.83,0,0,0,2.08.65,8.75,8.75,0,0,0,4.82-1.49,19.35,19.35,0,0,0,4.15-3.64,28.35,28.35,0,0,0,3-4.15c-.06-.35-.14-.86-.23-1.53a13.07,13.07,0,0,1-.13-1.72,13.27,13.27,0,0,1,1.84-7.17,5.62,5.62,0,0,1,4.92-3q1.71,0,1.71,1.11a7.76,7.76,0,0,1-.58,1.52c-.39.89-.9,2-1.53,3.28s-1.34,2.66-2.12,4.09-1.57,2.77-2.35,4a3.09,3.09,0,0,0,1.26,1.81,4.21,4.21,0,0,0,2.53.72,5.48,5.48,0,0,0,3.38-1.2,14.49,14.49,0,0,0,3.29-4.06c.73,0,1.09.19,1.09.58a13.34,13.34,0,0,1-3.48,4.16,7.27,7.27,0,0,1-4.55,1.56,4.73,4.73,0,0,1-4.42-2.28,26.85,26.85,0,0,1-5.82,6.07A12.32,12.32,0,0,1,650.91,371.56Z"/><path d="M682.21,371.69a11.62,11.62,0,0,1-6-1.56,5.14,5.14,0,0,1-2.66-4.74,11.58,11.58,0,0,1,1.67-5.65,23.67,23.67,0,0,1,4.42-5.61,24.53,24.53,0,0,1,6.13-4.29,15.43,15.43,0,0,1,6.81-1.65,8.32,8.32,0,0,1,3.34.71,2.51,2.51,0,0,1,1.62,2.47,5.68,5.68,0,0,1-1.71,3.57,17.15,17.15,0,0,1-4.87,3.63,20.15,20.15,0,0,1-3.43,1.37,42.18,42.18,0,0,1-4.15,1.07,17.86,17.86,0,0,1-3.43.42,10.42,10.42,0,0,0-.85,2.08,8.85,8.85,0,0,0-.41,2.66,5,5,0,0,0,.9,2.92c.6.87,1.72,1.3,3.34,1.3a12.73,12.73,0,0,0,5.55-1.23,18.56,18.56,0,0,0,4.6-3.12,28.21,28.21,0,0,0,3.47-3.83c1-1.3,1.72-2.4,2.26-3.31.72,0,1.08.19,1.08.58q-1.17,1.83-2.66,4a23.53,23.53,0,0,1-3.52,4,16.45,16.45,0,0,1-11.5,4.26Zm-1.63-11.43a22.22,22.22,0,0,0,4.24-.68,18,18,0,0,0,5.42-2.17,12.9,12.9,0,0,0,3.61-3.28,5.63,5.63,0,0,0,1.26-3,1.27,1.27,0,0,0-1.44-1.43,6.85,6.85,0,0,0-3,1,27.53,27.53,0,0,0-4.69,3.51,33.47,33.47,0,0,0-3.25,3.37C681.73,358.81,681,359.7,680.58,360.26Z"/><path d="M703.05,371.62c-2.23,0-3.87-.48-4.92-1.46a4.58,4.58,0,0,1-1.58-3.47,12.45,12.45,0,0,1,.81-4.29c.54-1.47,1-2.7,1.45-3.7a76.16,76.16,0,0,1,3.65-7.75q2.2-4.12,4.87-8.12a86.84,86.84,0,0,1,5.28-7.17,14.87,14.87,0,0,1,4.46-3.8,9.32,9.32,0,0,1,4.2-1.26,3.42,3.42,0,0,1,2.3.74,2.83,2.83,0,0,1,.86,2.24,7.72,7.72,0,0,1-.5,2.47,16,16,0,0,1-1.67,3.25,82.69,82.69,0,0,1-7.53,10.12,53.26,53.26,0,0,1-11.05,9.48,21.26,21.26,0,0,0-1.81,3.89,10.9,10.9,0,0,0-.72,3.38q0,4,3.79,4,2.88,0,6.41-3A34.06,34.06,0,0,0,718,358.9a2.55,2.55,0,0,1,.72.1.44.44,0,0,1,.36.48q-1,1.75-2.48,3.87a28.33,28.33,0,0,1-3.43,4,16.65,16.65,0,0,1-4.46,3.08A13.1,13.1,0,0,1,703.05,371.62Zm1.35-14.8a51.83,51.83,0,0,0,6.31-5.55,78.3,78.3,0,0,0,5.73-6.55,62.91,62.91,0,0,0,4.47-6.46,9.93,9.93,0,0,0,1-2.15,5.86,5.86,0,0,0,.41-1.94c0-.61-.21-.91-.63-.91a2.25,2.25,0,0,0-1.08.49,13.14,13.14,0,0,0-1.9,1.65,32.14,32.14,0,0,0-3.74,4.41q-2,2.81-4.11,6t-3.78,6.13Q705.39,354.88,704.4,356.82Z"/><path d="M718.11,358.7a34.93,34.93,0,0,0,1.9-3.53c.78-1.63,1.59-3.43,2.43-5.42a37.18,37.18,0,0,0,1.9-5.65,2.55,2.55,0,0,1,1-1.53,2.71,2.71,0,0,1,1.53-.48,3.38,3.38,0,0,1,2.17.81,2.81,2.81,0,0,1,1,2.3,4,4,0,0,1-1.49,3.12,19.8,19.8,0,0,1-3.65,2.46c.6.05,1.23.08,1.89.1s1.38,0,2.17,0q4.23,0,8.39-.39a1.6,1.6,0,0,1,.18.59,4.94,4.94,0,0,1-.68,2.14,21,21,0,0,1-1.4,2.34c-.24.39-.72,1.09-1.44,2.11s-1.51,2.16-2.35,3.44a29.5,29.5,0,0,0-2.12,3.76,7.84,7.84,0,0,0-.85,3.15c0,1.13.6,1.69,1.8,1.69s2.74-1,4.78-2.89a38.17,38.17,0,0,0,6.14-8c.72,0,1.08.19,1.08.58a42.5,42.5,0,0,1-2.48,3.83,33.34,33.34,0,0,1-3.3,3.93,18.1,18.1,0,0,1-3.87,3.05,8.56,8.56,0,0,1-4.33,1.2,6.7,6.7,0,0,1-3.43-1,3.51,3.51,0,0,1-1.72-3.28,7.84,7.84,0,0,1,1.09-3.93,26.39,26.39,0,0,1,2.43-3.6c.9-1.13,1.72-2.12,2.44-3a3.74,3.74,0,0,0,1.08-2.08c0-.77-.68-1.34-2-1.68a24,24,0,0,0-5.28-.59c-1.08,2-1.89,3.47-2.43,4.42s-1.06,1.86-1.54,2.72Q717.66,359.48,718.11,358.7Z"/><path d="M728.94,392.13q-4.7,0-6.68-1.33a3.77,3.77,0,0,1-2-3.14c0-1.87.94-3.59,2.84-5.17a21.79,21.79,0,0,1,7-3.79,68.15,68.15,0,0,1,10.69-2.53q6-1,11.5-2.15a30.62,30.62,0,0,0,3.16-4.9c1-1.84,1.83-3.63,2.61-5.39s1.42-3.19,1.9-4.31q-1.08,1.43-2.75,3.47a40.88,40.88,0,0,1-3.75,4,21.63,21.63,0,0,1-4.46,3.25,10.34,10.34,0,0,1-5,1.3,10.66,10.66,0,0,1-2.39-.33,5.6,5.6,0,0,1-2.44-1.2,3.24,3.24,0,0,1-1-2.63,6.67,6.67,0,0,1,1.44-3.73c1-1.36,1.92-2.72,2.89-4.06a4.22,4.22,0,0,1-.77-.06c-.21,0-.32-.22-.32-.52.19-.26.55-.82,1.09-1.69s1.15-1.82,1.85-2.86,1.3-1.94,1.85-2.72a5.62,5.62,0,0,1,2.21-2.08,5.45,5.45,0,0,1,2.39-.58h5.59c-.42.26-1,.55-1.58.87A5.78,5.78,0,0,0,753,351.3a69.93,69.93,0,0,0-4.24,5.75q-1.8,2.76-3.88,5.87a13.5,13.5,0,0,0-1.44,2.73,6.41,6.41,0,0,0-.45,2.14c0,1.43.66,2.14,2,2.14s3.19-.84,5.24-2.53a47.88,47.88,0,0,0,5.09-5.09q2.58-3,5-6.1c1.6-2.1,3-4,4.2-5.82A4,4,0,0,1,768,349h5a10.14,10.14,0,0,0-4,3.37,59.46,59.46,0,0,0-3.11,5.33c-1.26,2.38-2.47,4.84-3.61,7.4s-2.4,5.17-3.79,7.85a28,28,0,0,0,7.4-2.86,20,20,0,0,0,5.28-4.51,53.31,53.31,0,0,0,4.64-6.65c.73,0,1.09.19,1.09.58-1.33,2-2.53,3.75-3.61,5.26a22.37,22.37,0,0,1-3.61,4,22.81,22.81,0,0,1-5,3.18,48,48,0,0,1-7.67,2.83q-2.16,2.79-4.92,5.81a45.71,45.71,0,0,1-6.22,5.64,31.92,31.92,0,0,1-7.67,4.29A25,25,0,0,1,728.94,392.13Zm-2.17-1.29a16.13,16.13,0,0,0,6.13-1.3,35.7,35.7,0,0,0,6.14-3.28,66.67,66.67,0,0,0,5.46-4,52.53,52.53,0,0,0,4-3.6,11,11,0,0,0,1-1.17c.36-.47.73-.93,1.09-1.36l-9.7,1.85a80.53,80.53,0,0,0-9.16,2.24,16.51,16.51,0,0,0-6.81,3.7q-2.48,2.4-2.48,4.28a2.28,2.28,0,0,0,1,1.92A5.69,5.69,0,0,0,726.77,390.84Z"/><path d="M814.36,375.39q-9.2,0-14.39-4.09t-5.18-11.62a20.77,20.77,0,0,1,2.7-9.8,14.31,14.31,0,0,1-5.45-4.26,9.63,9.63,0,0,1-1.67-5.74,12.31,12.31,0,0,1,2.84-8,23.9,23.9,0,0,1,7.62-6,43.2,43.2,0,0,1,10.74-3.8,56.78,56.78,0,0,1,12.08-1.29,51.14,51.14,0,0,1,11.73,1.33,33.65,33.65,0,0,1,10.15,4.09,20.24,20.24,0,0,1,7,7,17.39,17.39,0,0,1,2.12,10.07,41.46,41.46,0,0,0,7.35-4.13A21.66,21.66,0,0,0,866.5,335a1.2,1.2,0,0,1,.9-.58c.31,0,.5.17.59.52a1.42,1.42,0,0,1-.49,1.23,38.37,38.37,0,0,1-5.55,5,39.55,39.55,0,0,1-7.72,4.41,16,16,0,0,1-.58,3.22,24.72,24.72,0,0,1-1.4,3.73,28.43,28.43,0,0,1-5.46,8,47.85,47.85,0,0,1-8.88,7.4,48.69,48.69,0,0,1-11.19,5.42A38.15,38.15,0,0,1,814.36,375.39Zm3-24.09a86.52,86.52,0,0,0,16-1.59,94.3,94.3,0,0,0,15.83-4.38,7.86,7.86,0,0,0,.18-1.65v-1.59a18.26,18.26,0,0,0-3.2-11,19.28,19.28,0,0,0-8.88-6.62A36.57,36.57,0,0,0,824,322.22a45.72,45.72,0,0,0-11,1.3,35.41,35.41,0,0,0-9.2,3.64,19.64,19.64,0,0,0-6.27,5.51,11.9,11.9,0,0,0-2.25,7,12.14,12.14,0,0,0,.67,3.8,7.25,7.25,0,0,0,3.21,3.67,37.09,37.09,0,0,1,3.42-4.38,58.81,58.81,0,0,1,5-4.94,48.44,48.44,0,0,1,6.14-4.57,33.62,33.62,0,0,1,6.85-3.34,21.18,21.18,0,0,1,7.17-1.27,19.7,19.7,0,0,1,3.12.26,12.24,12.24,0,0,1,3,.91c.48.21.72.41.72.58s-.14.24-.41.33a2.21,2.21,0,0,1-1,0,11.81,11.81,0,0,0-2.62-.26,17,17,0,0,0-6.59,1.39,33.83,33.83,0,0,0-6.49,3.64,52.23,52.23,0,0,0-5.86,4.8,58.14,58.14,0,0,0-4.74,5,43.54,43.54,0,0,0-3.11,4.12A42.38,42.38,0,0,0,817.34,351.3Zm-2.26,22.53A27.87,27.87,0,0,0,825,372a38.17,38.17,0,0,0,9.11-4.93,45.72,45.72,0,0,0,7.63-6.95,37.14,37.14,0,0,0,5.32-7.85q.54-1.11,1-2.31a8.49,8.49,0,0,0,.54-2.3A86.1,86.1,0,0,1,832.94,352a89.24,89.24,0,0,1-15.87,1.5,54.21,54.21,0,0,1-14.62-1.76,21,21,0,0,0-2.79,10.07q0,6,4.37,9.05A19,19,0,0,0,815.08,373.83Z"/><path d="M859.65,371.43a10.59,10.59,0,0,1-2.39-.33,5.54,5.54,0,0,1-2.44-1.2,3.25,3.25,0,0,1-1-2.63,7.09,7.09,0,0,1,1.54-3.89l2.7-3.9c-.66,0-1-.19-1-.58q.09-.19.81-1.23c.48-.7,1-1.52,1.72-2.47s1.3-1.87,1.94-2.76,1.12-1.57,1.48-2.05a4,4,0,0,1,3.43-1.42H872a17.69,17.69,0,0,0-2.76,1.85,18.31,18.31,0,0,0-3,3.66c-.84,1.22-1.58,2.29-2.21,3.22l-1.89,2.82c-.63,1-1.16,1.75-1.58,2.4a14.6,14.6,0,0,0-1.53,2.89,6.34,6.34,0,0,0-.37,2c0,1.43.67,2.14,2,2.14s3.19-.84,5.23-2.53a38.66,38.66,0,0,0,5-5.13c1.63-2,3.17-4,4.65-6.16s2.78-4,3.92-5.72a4,4,0,0,1,3.52-1.42h5a16.64,16.64,0,0,0-4,3.5,63.23,63.23,0,0,0-4.47,6c-.42.65-1,1.48-1.62,2.47a23.29,23.29,0,0,0-1.76,3.18,8.14,8.14,0,0,0-.77,3.38,2,2,0,0,0,2.26,2.27c2,0,4-1,6-3.05a43.68,43.68,0,0,0,5.69-7.79,3.19,3.19,0,0,1,.85.06c.09.05.17.22.23.52q-1,1.75-2.39,3.8a35.08,35.08,0,0,1-3.16,3.93,15.77,15.77,0,0,1-3.88,3.05,9.45,9.45,0,0,1-4.65,1.17,5.57,5.57,0,0,1-3.69-1.2,4.17,4.17,0,0,1-1.45-3.41,9.14,9.14,0,0,1,.91-3.77,42.74,42.74,0,0,1-3.52,3.9,20.17,20.17,0,0,1-4.24,3.21A9.11,9.11,0,0,1,859.65,371.43Z"/><path d="M907.82,337.15a39.66,39.66,0,0,0-2.62,3.12c-1,1.25-1.85,2.47-2.66,3.63l-1.85,2.67H909a2.18,2.18,0,0,1-.32.84,1.85,1.85,0,0,1-1.21.84h-7.85q-1.08,1.75-2.48,4.22t-2.71,5.13c-.87,1.78-1.59,3.43-2.16,5a11.11,11.11,0,0,0-.86,3.73,4.75,4.75,0,0,0,.72,2.89,3.11,3.11,0,0,0,2.62.94,7.64,7.64,0,0,0,4.69-1.72,24,24,0,0,0,4.28-4.32,48.68,48.68,0,0,0,3.57-5.19c.72,0,1.08.19,1.08.58-.66,1.17-1.48,2.45-2.44,3.83a32.16,32.16,0,0,1-3.29,4,16.23,16.23,0,0,1-4.15,3.11,10.84,10.84,0,0,1-5.1,1.2c-2.52,0-4.24-.51-5.14-1.52a5.72,5.72,0,0,1-1.35-3.93,12.91,12.91,0,0,1,.9-4.25,50.3,50.3,0,0,1,2.21-5.16c.87-1.78,1.73-3.43,2.57-5s1.5-2.71,2-3.54h-5.78a1.61,1.61,0,0,1,.63-1.1,2,2,0,0,1,1.36-.58h4.78c.48-.7,1-1.56,1.67-2.6a26.07,26.07,0,0,1,2.57-3.44,9.47,9.47,0,0,1,3.47-2.47A11.53,11.53,0,0,1,907.82,337.15Z"/><path d="M911.52,371.62c-2.23,0-3.87-.48-4.92-1.46a4.58,4.58,0,0,1-1.58-3.47,12.45,12.45,0,0,1,.81-4.29c.54-1.47,1-2.7,1.45-3.7a74.07,74.07,0,0,1,3.65-7.75q2.21-4.12,4.87-8.12a86.84,86.84,0,0,1,5.28-7.17,14.87,14.87,0,0,1,4.46-3.8,9.29,9.29,0,0,1,4.2-1.26,3.42,3.42,0,0,1,2.3.74,2.82,2.82,0,0,1,.85,2.24,7.67,7.67,0,0,1-.49,2.47,16,16,0,0,1-1.67,3.25,82.69,82.69,0,0,1-7.53,10.12,53.26,53.26,0,0,1-11.05,9.48,20.62,20.62,0,0,0-1.81,3.89,10.9,10.9,0,0,0-.72,3.38q0,4,3.79,4c1.92,0,4.06-1,6.4-3a33.85,33.85,0,0,0,6.68-8.28,2.55,2.55,0,0,1,.72.1.44.44,0,0,1,.36.48q-1,1.75-2.48,3.87a28.33,28.33,0,0,1-3.43,4,16.65,16.65,0,0,1-4.46,3.08A13.1,13.1,0,0,1,911.52,371.62Zm1.35-14.8a51.83,51.83,0,0,0,6.31-5.55,78.3,78.3,0,0,0,5.73-6.55,64.54,64.54,0,0,0,4.47-6.46,9.93,9.93,0,0,0,1-2.15,6.13,6.13,0,0,0,.41-1.94c0-.61-.21-.91-.63-.91a2.25,2.25,0,0,0-1.08.49,13.14,13.14,0,0,0-1.9,1.65,32.14,32.14,0,0,0-3.74,4.41c-1.36,1.87-2.72,3.86-4.11,6s-2.64,4.16-3.79,6.13S913.53,355.52,912.87,356.82Z"/><path d="M933,371.69a11.61,11.61,0,0,1-6-1.56,5.13,5.13,0,0,1-2.67-4.74,11.68,11.68,0,0,1,1.67-5.65,24.19,24.19,0,0,1,4.42-5.61,24.58,24.58,0,0,1,6.14-4.29,15.37,15.37,0,0,1,6.81-1.65,8.35,8.35,0,0,1,3.34.71,2.51,2.51,0,0,1,1.62,2.47,5.68,5.68,0,0,1-1.71,3.57,17.21,17.21,0,0,1-4.88,3.63,20,20,0,0,1-3.42,1.37c-1.39.43-2.77.79-4.15,1.07a18,18,0,0,1-3.43.42,10.38,10.38,0,0,0-.86,2.08,8.84,8.84,0,0,0-.4,2.66,5,5,0,0,0,.9,2.92c.6.87,1.71,1.3,3.34,1.3a12.66,12.66,0,0,0,5.54-1.23,18.62,18.62,0,0,0,4.61-3.12,28.21,28.21,0,0,0,3.47-3.83c1-1.3,1.71-2.4,2.25-3.31.73,0,1.09.19,1.09.58-.79,1.22-1.67,2.54-2.67,4a23.47,23.47,0,0,1-3.51,4A16.45,16.45,0,0,1,933,371.69Zm-1.62-11.43a22.34,22.34,0,0,0,4.24-.68,17.84,17.84,0,0,0,5.41-2.17,12.63,12.63,0,0,0,3.61-3.28,5.66,5.66,0,0,0,1.27-3,1.28,1.28,0,0,0-1.45-1.43,6.93,6.93,0,0,0-3,1,27.93,27.93,0,0,0-4.69,3.51,34.52,34.52,0,0,0-3.24,3.37C932.5,358.81,931.78,359.7,931.36,360.26Z"/><path d="M968.26,337.15a37.59,37.59,0,0,0-2.62,3.12c-1,1.25-1.85,2.47-2.66,3.63l-1.85,2.67h8.3a2.18,2.18,0,0,1-.32.84,1.85,1.85,0,0,1-1.21.84h-7.85q-1.08,1.75-2.48,4.22t-2.71,5.13c-.87,1.78-1.59,3.43-2.17,5a11.3,11.3,0,0,0-.85,3.73,4.75,4.75,0,0,0,.72,2.89,3.11,3.11,0,0,0,2.62.94,7.64,7.64,0,0,0,4.69-1.72,24,24,0,0,0,4.28-4.32,48.54,48.54,0,0,0,3.56-5.19c.73,0,1.09.19,1.09.58q-1,1.75-2.44,3.83a32.16,32.16,0,0,1-3.29,4,16.23,16.23,0,0,1-4.15,3.11,10.84,10.84,0,0,1-5.1,1.2c-2.52,0-4.24-.51-5.14-1.52a5.72,5.72,0,0,1-1.35-3.93,12.91,12.91,0,0,1,.9-4.25,50.3,50.3,0,0,1,2.21-5.16c.87-1.78,1.73-3.43,2.57-5s1.5-2.71,2-3.54h-5.78a1.61,1.61,0,0,1,.63-1.1,2,2,0,0,1,1.36-.58H956c.48-.7,1-1.56,1.67-2.6a26.07,26.07,0,0,1,2.57-3.44,9.47,9.47,0,0,1,3.47-2.47A11.53,11.53,0,0,1,968.26,337.15Z"/></svg>