<svg width="40" height="40" viewBox="0 0 40 40" fill="none" xmlns="http://www.w3.org/2000/svg">
<circle cx="20" cy="20" r="19.5" stroke="white"/>
<g clip-path="url(#clip0_332_2039)">
<path d="M23.6689 12H16.3311C13.9429 12 12 13.9429 12 16.3311V23.669C12 26.0571 13.9429 28 16.3311 28H23.669C26.0571 28 28 26.0571 28 23.669V16.3311C28 13.9429 26.0571 12 23.6689 12ZM20 24.3749C17.5876 24.3749 15.6251 22.4124 15.6251 20C15.6251 17.5876 17.5876 15.6251 20 15.6251C22.4124 15.6251 24.3749 17.5876 24.3749 20C24.3749 22.4124 22.4124 24.3749 20 24.3749ZM24.4795 16.6569C23.7666 16.6569 23.1868 16.077 23.1868 15.3641C23.1868 14.6512 23.7666 14.0713 24.4795 14.0713C25.1924 14.0713 25.7723 14.6512 25.7723 15.3641C25.7723 16.077 25.1923 16.6569 24.4795 16.6569Z" fill="white"/>
<path d="M19.9567 16.915C18.2481 16.915 16.8579 18.2793 16.8579 19.9563C16.8579 21.6332 18.2481 22.9976 19.9567 22.9976C21.6654 22.9976 23.0554 21.6332 23.0554 19.9563C23.0554 18.2793 21.6654 16.915 19.9567 16.915Z" fill="white"/>
</g>
<defs>
<clipPath id="clip0_332_2039">
<rect width="16" height="16" fill="white" transform="translate(12 12)"/>
</clipPath>
</defs>
</svg>
