<svg width="13" height="13" viewBox="0 0 13 13" fill="none" xmlns="http://www.w3.org/2000/svg">
<g clip-path="url(#clip0_407_3807)">
<path d="M5.9146 1.55395C5.9742 1.45166 6.05959 1.36679 6.16224 1.3078C6.26488 1.24882 6.38121 1.21777 6.4996 1.21777C6.61798 1.21777 6.73431 1.24882 6.83695 1.3078C6.9396 1.36679 7.02499 1.45166 7.0846 1.55395L8.59855 4.15287L11.5387 4.78987C11.6544 4.815 11.7614 4.87001 11.8492 4.94941C11.9369 5.02881 12.0024 5.12982 12.0389 5.24239C12.0755 5.35495 12.0819 5.47513 12.0575 5.59095C12.0331 5.70676 11.9788 5.81417 11.9 5.90245L9.89585 8.14549L10.1992 11.1382C10.2111 11.256 10.192 11.375 10.1436 11.4831C10.0953 11.5912 10.0194 11.6848 9.92354 11.7544C9.82771 11.824 9.7153 11.8673 9.59752 11.8799C9.47974 11.8924 9.36072 11.8739 9.25235 11.8261L6.4996 10.6128L3.74685 11.8261C3.63847 11.8739 3.51945 11.8924 3.40167 11.8799C3.28389 11.8673 3.17148 11.824 3.07565 11.7544C2.97982 11.6848 2.90394 11.5912 2.85557 11.4831C2.8072 11.375 2.78805 11.256 2.80001 11.1382L3.10335 8.14549L1.09918 5.90299C1.02022 5.81471 0.965796 5.70727 0.941344 5.59138C0.916893 5.47549 0.923267 5.35522 0.959831 5.24257C0.996396 5.12991 1.06187 5.02882 1.14972 4.94939C1.23757 4.86995 1.34472 4.81495 1.46047 4.78987L4.40064 4.15287L5.9146 1.55395Z" fill="#191919"/>
</g>
<defs>
<clipPath id="clip0_407_3807">
<rect width="13" height="13" fill="white"/>
</clipPath>
</defs>
</svg>
