   <svg xmlns="http://www.w3.org/2000/svg" width="14" height="12" viewBox="0 0 14 12" fill="none">
                    <path d="M7 12C6.80066 12 6.60855 11.9304 6.45879 11.8041C5.89321 11.3276 5.34795 10.8799 4.86686 10.4849L4.8644 10.4829C3.45395 9.32487 2.23598 8.32484 1.38854 7.33971C0.441246 6.23846 0 5.19425 0 4.05354C0 2.94526 0.394461 1.92278 1.11062 1.17435C1.83534 0.417074 2.82975 0 3.911 0C4.71915 0 5.45923 0.246156 6.1107 0.731566C6.43945 0.976563 6.73745 1.27643 7 1.6262C7.26264 1.27643 7.56055 0.976563 7.88941 0.731566C8.54088 0.246156 9.28096 0 10.0891 0C11.1702 0 12.1648 0.417074 12.8895 1.17435C13.6056 1.92278 14 2.94526 14 4.05354C14 5.19422 13.5589 6.23844 12.6116 7.33961C11.7641 8.32484 10.5462 9.32477 9.13601 10.4827C8.65408 10.8782 8.10797 11.3267 7.54111 11.8043C7.3913 11.9305 7.19902 12.0001 7 12Z" fill="#191919"></path>
                </svg>