<svg width="14" height="12" viewBox="0 0 14 12" fill="none" xmlns="http://www.w3.org/2000/svg">
                    <path d="M6.99989 12C6.78207 12 6.58405 11.9209 6.41573 11.7924C5.87118 11.3377 5.34643 10.9028 4.88108 10.5272C3.42563 9.34102 2.22761 8.35255 1.38603 7.37397C0.435535 6.26689 -0.0100098 5.229 -0.0100098 4.08237C-0.0100098 2.93575 0.395931 1.9374 1.1187 1.18616C1.85138 0.415157 2.85138 0 3.94049 0C4.75237 0 5.50484 0.247117 6.15831 0.741351C6.46524 0.968699 6.74247 1.24547 6.99989 1.57166C7.24742 1.25535 7.53454 0.978583 7.84148 0.741351C8.49494 0.257002 9.24742 0 10.0593 0C11.1484 0 12.1484 0.415157 12.8811 1.18616C13.6039 1.9374 13.9999 2.9654 13.9999 4.08237C13.9999 5.19934 13.5543 6.27677 12.6039 7.37397C11.7623 8.35255 10.5543 9.34102 9.15831 10.4876C8.66326 10.9028 8.1286 11.3278 7.57415 11.7924C7.41573 11.9308 7.20781 12 6.98999 12H6.99989ZM3.94049 0.919275C3.1187 0.919275 2.36623 1.23558 1.81177 1.8089C1.25732 2.39209 0.950386 3.19275 0.950386 4.08237C0.950386 5.01153 1.31672 5.85173 2.1187 6.79077C2.90088 7.70016 4.0791 8.66886 5.43553 9.77595C5.95039 10.201 6.48504 10.6359 7.0395 11.1005C7.51474 10.626 8.0593 10.1812 8.54445 9.78583C9.91078 8.66886 11.089 7.70016 11.8811 6.78089C12.693 5.84185 13.0494 5.00165 13.0494 4.07249C13.0494 3.19275 12.7425 2.38221 12.188 1.79901C11.6435 1.2257 10.8811 0.90939 10.0593 0.90939C9.45534 0.90939 8.91078 1.0972 8.41573 1.45305C7.98009 1.77924 7.67316 2.18451 7.49494 2.48105C7.38603 2.64909 7.19791 2.75783 6.99989 2.75783C6.80187 2.75783 6.60385 2.65898 6.50484 2.48105C6.32662 2.1944 6.01969 1.77924 5.58405 1.45305C5.0989 1.08731 4.54445 0.90939 3.94049 0.90939V0.919275Z" fill="#191919"></path>
                </svg>