<svg width="15" height="15" viewBox="0 0 15 15" fill="none" xmlns="http://www.w3.org/2000/svg">
<path d="M7.50245 0C4.37127 0 3.45552 0.00323104 3.27751 0.0180015C2.63494 0.0714291 2.23509 0.17263 1.79948 0.389571C1.46378 0.556316 1.19902 0.749602 0.937721 1.02055C0.461849 1.51467 0.173442 2.12256 0.0690383 2.84516C0.0182786 3.19596 0.00351216 3.26751 0.000512724 5.05935C-0.000640905 5.65663 0.000512724 6.4427 0.000512724 7.49706C0.000512724 10.6266 0.00397361 11.5416 0.0189708 11.7193C0.0708841 12.3448 0.168943 12.7383 0.376596 13.1687C0.773444 13.9926 1.53138 14.6111 2.42429 14.8419C2.73346 14.9215 3.07493 14.9654 3.51331 14.9862C3.69905 14.9942 5.59215 15 7.48641 15C9.38067 15 11.2749 14.9977 11.4561 14.9885C11.9636 14.9646 12.2584 14.925 12.5843 14.8408C13.027 14.7272 13.4397 14.5183 13.7933 14.2287C14.147 13.9391 14.4332 13.5758 14.632 13.1641C14.8356 12.744 14.9389 12.3355 14.9856 11.7428C14.9957 11.6135 15 9.55292 15 7.4951C15 5.43692 14.9954 3.38013 14.9852 3.25089C14.9379 2.64853 14.8347 2.2435 14.6245 1.81538C14.452 1.46493 14.2605 1.20322 13.9825 0.935618C13.4864 0.461578 12.8796 0.173092 12.1564 0.0687751C11.8061 0.0181169 11.7363 0.00311565 9.94353 0H7.50245Z" fill="url(#paint0_radial_383_1711)"/>
<path d="M7.50245 0C4.37127 0 3.45552 0.00323104 3.27751 0.0180015C2.63494 0.0714291 2.23509 0.17263 1.79948 0.389571C1.46378 0.556316 1.19902 0.749602 0.937721 1.02055C0.461849 1.51467 0.173442 2.12256 0.0690383 2.84516C0.0182786 3.19596 0.00351216 3.26751 0.000512724 5.05935C-0.000640905 5.65663 0.000512724 6.4427 0.000512724 7.49706C0.000512724 10.6266 0.00397361 11.5416 0.0189708 11.7193C0.0708841 12.3448 0.168943 12.7383 0.376596 13.1687C0.773444 13.9926 1.53138 14.6111 2.42429 14.8419C2.73346 14.9215 3.07493 14.9654 3.51331 14.9862C3.69905 14.9942 5.59215 15 7.48641 15C9.38067 15 11.2749 14.9977 11.4561 14.9885C11.9636 14.9646 12.2584 14.925 12.5843 14.8408C13.027 14.7272 13.4397 14.5183 13.7933 14.2287C14.147 13.9391 14.4332 13.5758 14.632 13.1641C14.8356 12.744 14.9389 12.3355 14.9856 11.7428C14.9957 11.6135 15 9.55292 15 7.4951C15 5.43692 14.9954 3.38013 14.9852 3.25089C14.9379 2.64853 14.8347 2.2435 14.6245 1.81538C14.452 1.46493 14.2605 1.20322 13.9825 0.935618C13.4864 0.461578 12.8796 0.173092 12.1564 0.0687751C11.8061 0.0181169 11.7363 0.00311565 9.94353 0H7.50245Z" fill="url(#paint1_radial_383_1711)"/>
<path d="M7.49907 1.96191C5.9952 1.96191 5.80646 1.96849 5.21581 1.99538C4.6263 2.02238 4.22392 2.11573 3.87183 2.25271C3.50763 2.39418 3.19869 2.58343 2.8909 2.89142C2.58288 3.19929 2.39368 3.50831 2.25179 3.8725C2.11451 4.2248 2.02106 4.62741 1.99453 5.21684C1.96823 5.80766 1.9613 5.99656 1.9613 7.50084C1.9613 9.00513 1.96799 9.19333 1.99476 9.78415C2.02187 10.3738 2.1152 10.7763 2.25202 11.1285C2.39357 11.4928 2.58276 11.8018 2.89067 12.1097C3.19834 12.4178 3.50728 12.6075 3.87125 12.749C4.22357 12.886 4.62607 12.9793 5.21546 13.0063C5.80612 13.0332 5.99474 13.0398 7.49849 13.0398C9.00248 13.0398 9.19064 13.0332 9.78129 13.0063C10.3708 12.9793 10.7736 12.886 11.126 12.749C11.4901 12.6075 11.7985 12.4178 12.1062 12.1097C12.4142 11.8018 12.6034 11.4928 12.7453 11.1286C12.8814 10.7763 12.9749 10.3737 13.0026 9.78427C13.0291 9.19345 13.036 9.00513 13.036 7.50084C13.036 5.99656 13.0291 5.80778 13.0026 5.21696C12.9749 4.62729 12.8814 4.2248 12.7453 3.87261C12.6034 3.50831 12.4142 3.19929 12.1062 2.89142C11.7982 2.58331 11.4902 2.39407 11.1256 2.25271C10.7726 2.11573 10.37 2.02238 9.78049 1.99538C9.18983 1.96849 9.00179 1.96191 7.49745 1.96191H7.49907ZM7.00232 2.96008C7.14975 2.95984 7.31426 2.96008 7.49907 2.96008C8.97756 2.96008 9.1528 2.96538 9.73665 2.99192C10.2765 3.01662 10.5696 3.10686 10.7648 3.18267C11.0232 3.28306 11.2074 3.40307 11.4011 3.59694C11.5949 3.7908 11.7149 3.97543 11.8155 4.23391C11.8913 4.42893 11.9816 4.72203 12.0062 5.26208C12.0327 5.84597 12.0385 6.02137 12.0385 7.49957C12.0385 8.97778 12.0327 9.15318 12.0062 9.73707C11.9815 10.2771 11.8913 10.5702 11.8155 10.7652C11.7151 11.0237 11.5949 11.2078 11.4011 11.4015C11.2073 11.5954 11.0233 11.7154 10.7648 11.8158C10.5698 11.8919 10.2765 11.982 9.73665 12.0066C9.15291 12.0332 8.97756 12.039 7.49907 12.039C6.02046 12.039 5.84523 12.0332 5.26149 12.0066C4.72159 11.9817 4.42857 11.8915 4.23326 11.8157C3.97485 11.7153 3.79027 11.5953 3.59646 11.4014C3.40265 11.2075 3.28267 11.0234 3.18207 10.7648C3.10628 10.5698 3.01595 10.2767 2.99138 9.73661C2.96485 9.15271 2.95954 8.97731 2.95954 7.49819C2.95954 6.01906 2.96485 5.84459 2.99138 5.26069C3.01607 4.72065 3.10628 4.42755 3.18207 4.2323C3.28244 3.97381 3.40265 3.78918 3.59646 3.59532C3.79027 3.40146 3.97485 3.28145 4.23326 3.18082C4.42846 3.10466 4.72159 3.01466 5.26149 2.98985C5.77232 2.96677 5.97028 2.95984 7.00232 2.95869V2.96008ZM10.4549 3.87977C10.3235 3.87977 10.195 3.91876 10.0857 3.9918C9.97642 4.06485 9.89125 4.16867 9.84097 4.29013C9.79068 4.4116 9.77753 4.54526 9.80319 4.6742C9.82885 4.80314 9.89216 4.92157 9.98512 5.01452C10.0781 5.10746 10.1965 5.17075 10.3254 5.19637C10.4543 5.22199 10.5879 5.20879 10.7093 5.15845C10.8308 5.10811 10.9345 5.02288 11.0075 4.91354C11.0805 4.80421 11.1194 4.67568 11.1194 4.54421C11.1194 4.17726 10.8218 3.87954 10.4549 3.87954V3.87977ZM7.49907 4.65637C5.92863 4.65637 4.65537 5.92998 4.65537 7.50084C4.65537 9.07171 5.92863 10.3447 7.49907 10.3447C9.06951 10.3447 10.3424 9.07171 10.3424 7.50084C10.3424 5.92998 9.06951 4.65637 7.49907 4.65637ZM7.49907 5.65453C8.51842 5.65453 9.34488 6.4811 9.34488 7.50084C9.34488 8.52047 8.51842 9.34715 7.49907 9.34715C6.47961 9.34715 5.65326 8.52047 5.65326 7.50084C5.65326 6.4811 6.47961 5.65453 7.49907 5.65453Z" fill="white"/>
<defs>
<radialGradient id="paint0_radial_383_1711" cx="0" cy="0" r="1" gradientUnits="userSpaceOnUse" gradientTransform="translate(3.98439 16.1553) rotate(-90) scale(14.8661 13.8266)">
<stop stop-color="#FFDD55"/>
<stop offset="0.1" stop-color="#FFDD55"/>
<stop offset="0.5" stop-color="#FF543E"/>
<stop offset="1" stop-color="#C837AB"/>
</radialGradient>
<radialGradient id="paint1_radial_383_1711" cx="0" cy="0" r="1" gradientUnits="userSpaceOnUse" gradientTransform="translate(-2.51258 1.08057) rotate(78.6806) scale(6.64521 27.3918)">
<stop stop-color="#3771C8"/>
<stop offset="0.128" stop-color="#3771C8"/>
<stop offset="1" stop-color="#6600FF" stop-opacity="0"/>
</radialGradient>
</defs>
</svg>
