<svg width="16" height="15" viewBox="0 0 16 15" fill="none" xmlns="http://www.w3.org/2000/svg">
<path d="M8.00065 2.43257C8.61618 1.38761 9.38855 0.612014 10.4547 0.227202C12.5708 -0.537114 14.8574 0.685659 15.7069 3.01377C16.2372 4.46411 15.9907 5.84811 15.4237 7.20557C14.9208 8.4091 14.179 9.44212 13.3388 10.3969C11.7642 12.1882 9.93437 13.6478 8.00749 15C6.80079 14.2261 5.6559 13.3475 4.58442 12.3733C3.24756 11.1565 2.01526 9.83556 1.09227 8.22067C0.487947 7.15912 0.0379683 6.03654 0.00249283 4.7859C-0.0553881 2.76762 0.890001 0.555619 3.32847 0.101807C5.21551 -0.248505 6.74718 0.428897 7.82575 2.15856C7.87554 2.23751 7.92658 2.31713 8.00065 2.43257Z" fill="#FF6A73"/>
</svg>
