<svg width="16" height="15" viewBox="0 0 16 15" fill="none" xmlns="http://www.w3.org/2000/svg">
<path d="M7.93909 14.1533L7.68909 14.0333C6.54497 13.3461 5.4611 12.5634 4.44909 11.6933C3.13471 10.6273 2.00317 9.35388 1.09908 7.92329C0.454502 6.95995 0.0814227 5.84072 0.019085 4.68329C-0.0821848 3.61929 0.222122 2.55629 0.871098 1.70706C1.52007 0.857828 2.46583 0.285024 3.51908 0.103294C4.33648 -0.0785161 5.18905 -0.0194156 5.97355 0.273437C6.75804 0.56629 7.44078 1.08033 7.93909 1.75329C8.48266 1.051 9.21948 0.52271 10.0591 0.233294C11.1484 -0.108858 12.3277 -0.0181802 13.352 0.486491C14.3762 0.991161 15.1667 1.87103 15.5591 2.94329C15.7925 3.59258 15.889 4.28314 15.8425 4.97154C15.7961 5.65994 15.6076 6.33127 15.2891 6.94329C14.7891 8.01792 14.1132 9.00146 13.2891 9.85329C11.7934 11.4132 10.1145 12.7865 8.28909 13.9433L7.93909 14.1533ZM4.47908 1.03329C4.21419 1.03307 3.94981 1.05649 3.68909 1.10329C2.87664 1.24573 2.14874 1.69176 1.65295 2.35096C1.15715 3.01016 0.930555 3.83322 1.01909 4.65329C1.07178 5.63622 1.3897 6.58653 1.93909 7.40329C2.78649 8.72849 3.8436 9.90718 5.06909 10.8933C5.97419 11.6551 6.93338 12.3503 7.93909 12.9733C9.60923 11.9015 11.1495 10.6398 12.5291 9.21329C13.2863 8.44285 13.9083 7.55036 14.3691 6.57329C14.6411 6.07758 14.8049 5.52983 14.8497 4.96617C14.8945 4.40252 14.8193 3.83576 14.6291 3.30329C14.3289 2.47102 13.7205 1.78588 12.9295 1.38946C12.1385 0.993046 11.2255 0.915659 10.3791 1.17329C9.5247 1.48307 8.81327 2.0949 8.37908 2.89329L7.93909 3.53329L7.33909 2.66329C7.04752 2.16436 6.62968 1.75102 6.12761 1.46487C5.62554 1.17873 5.05696 1.02988 4.47908 1.03329V1.03329Z" fill="black"/>
</svg>
